<?xml version="1.0" encoding="UTF-8" standalone="no"?>
<!DOCTYPE svg PUBLIC "-//W3C//DTD SVG 1.1//EN"
 "http://www.w3.org/Graphics/SVG/1.1/DTD/svg11.dtd">
<!-- Generated by graphviz version 8.0.1 (20230327.1645)
 -->
<!-- Title: Tree Pages: 1 -->
<svg width="368pt" height="269pt"
 viewBox="0.00 0.00 367.50 269.00" xmlns="http://www.w3.org/2000/svg" xmlns:xlink="http://www.w3.org/1999/xlink">
<g id="graph0" class="graph" transform="scale(1 1) rotate(0) translate(4 265)">
<title>Tree</title>
<polygon fill="white" stroke="none" points="-4,4 -4,-265 363.5,-265 363.5,4 -4,4"/>
<!-- 0 -->
<g id="node1" class="node">
<title>0</title>
<path fill="#ffffff" stroke="black" d="M222.5,-261C222.5,-261 45.5,-261 45.5,-261 39.5,-261 33.5,-255 33.5,-249 33.5,-249 33.5,-205 33.5,-205 33.5,-199 39.5,-193 45.5,-193 45.5,-193 222.5,-193 222.5,-193 228.5,-193 234.5,-199 234.5,-205 234.5,-205 234.5,-249 234.5,-249 234.5,-255 228.5,-261 222.5,-261"/>
<text text-anchor="middle" x="134" y="-245.8" font-family="Helvetica,sans-Serif" font-size="14.00">Länge Kronblatt (cm) &lt;= 2.45</text>
<text text-anchor="middle" x="134" y="-230.8" font-family="Helvetica,sans-Serif" font-size="14.00">samples = 100.0%</text>
<text text-anchor="middle" x="134" y="-215.8" font-family="Helvetica,sans-Serif" font-size="14.00">value = [0.333, 0.333, 0.333]</text>
<text text-anchor="middle" x="134" y="-200.8" font-family="Helvetica,sans-Serif" font-size="14.00">class = setosa</text>
</g>
<!-- 1 -->
<g id="node2" class="node">
<title>1</title>
<path fill="#e58139" stroke="black" d="M88,-149.5C88,-149.5 12,-149.5 12,-149.5 6,-149.5 0,-143.5 0,-137.5 0,-137.5 0,-108.5 0,-108.5 0,-102.5 6,-96.5 12,-96.5 12,-96.5 88,-96.5 88,-96.5 94,-96.5 100,-102.5 100,-108.5 100,-108.5 100,-137.5 100,-137.5 100,-143.5 94,-149.5 88,-149.5"/>
<text text-anchor="middle" x="50" y="-134.3" font-family="Helvetica,sans-Serif" font-size="14.00">33.3%</text>
<text text-anchor="middle" x="50" y="-119.3" font-family="Helvetica,sans-Serif" font-size="14.00">[1.0, 0.0, 0.0]</text>
<text text-anchor="middle" x="50" y="-104.3" font-family="Helvetica,sans-Serif" font-size="14.00">setosa</text>
</g>
<!-- 0&#45;&gt;1 -->
<g id="edge1" class="edge">
<title>0&#45;&gt;1</title>
<path fill="none" stroke="black" d="M106.5,-192.6C97.34,-181.49 87.15,-169.11 77.96,-157.95"/>
<polygon fill="black" stroke="black" points="80.23,-156.2 71.17,-150.71 74.82,-160.65 80.23,-156.2"/>
<text text-anchor="middle" x="68.76" y="-170.89" font-family="Helvetica,sans-Serif" font-size="14.00">True</text>
</g>
<!-- 2 -->
<g id="node3" class="node">
<title>2</title>
<path fill="#ffffff" stroke="black" d="M305.5,-157C305.5,-157 130.5,-157 130.5,-157 124.5,-157 118.5,-151 118.5,-145 118.5,-145 118.5,-101 118.5,-101 118.5,-95 124.5,-89 130.5,-89 130.5,-89 305.5,-89 305.5,-89 311.5,-89 317.5,-95 317.5,-101 317.5,-101 317.5,-145 317.5,-145 317.5,-151 311.5,-157 305.5,-157"/>
<text text-anchor="middle" x="218" y="-141.8" font-family="Helvetica,sans-Serif" font-size="14.00">Breite Kronblatt (cm) &lt;= 1.75</text>
<text text-anchor="middle" x="218" y="-126.8" font-family="Helvetica,sans-Serif" font-size="14.00">66.7%</text>
<text text-anchor="middle" x="218" y="-111.8" font-family="Helvetica,sans-Serif" font-size="14.00">[0.0, 0.5, 0.5]</text>
<text text-anchor="middle" x="218" y="-96.8" font-family="Helvetica,sans-Serif" font-size="14.00">versicolor</text>
</g>
<!-- 0&#45;&gt;2 -->
<g id="edge2" class="edge">
<title>0&#45;&gt;2</title>
<path fill="none" stroke="black" d="M161.5,-192.6C168.54,-184.06 176.19,-174.77 183.53,-165.86"/>
<polygon fill="black" stroke="black" points="186.78,-168.42 190.43,-158.47 181.37,-163.97 186.78,-168.42"/>
<text text-anchor="middle" x="192.84" y="-178.66" font-family="Helvetica,sans-Serif" font-size="14.00">False</text>
</g>
<!-- 3 -->
<g id="node4" class="node">
<title>3</title>
<path fill="#4de88e" stroke="black" d="M196.5,-53C196.5,-53 87.5,-53 87.5,-53 81.5,-53 75.5,-47 75.5,-41 75.5,-41 75.5,-12 75.5,-12 75.5,-6 81.5,0 87.5,0 87.5,0 196.5,0 196.5,0 202.5,0 208.5,-6 208.5,-12 208.5,-12 208.5,-41 208.5,-41 208.5,-47 202.5,-53 196.5,-53"/>
<text text-anchor="middle" x="142" y="-37.8" font-family="Helvetica,sans-Serif" font-size="14.00">36.0%</text>
<text text-anchor="middle" x="142" y="-22.8" font-family="Helvetica,sans-Serif" font-size="14.00">[0.0, 0.907, 0.093]</text>
<text text-anchor="middle" x="142" y="-7.8" font-family="Helvetica,sans-Serif" font-size="14.00">versicolor</text>
</g>
<!-- 2&#45;&gt;3 -->
<g id="edge3" class="edge">
<title>2&#45;&gt;3</title>
<path fill="none" stroke="black" d="M191.21,-88.68C184.22,-79.99 176.68,-70.62 169.64,-61.87"/>
<polygon fill="black" stroke="black" points="171.82,-59.99 162.82,-54.39 166.36,-64.38 171.82,-59.99"/>
</g>
<!-- 4 -->
<g id="node5" class="node">
<title>4</title>
<path fill="#843de6" stroke="black" d="M347.5,-53C347.5,-53 238.5,-53 238.5,-53 232.5,-53 226.5,-47 226.5,-41 226.5,-41 226.5,-12 226.5,-12 226.5,-6 232.5,0 238.5,0 238.5,0 347.5,0 347.5,0 353.5,0 359.5,-6 359.5,-12 359.5,-12 359.5,-41 359.5,-41 359.5,-47 353.5,-53 347.5,-53"/>
<text text-anchor="middle" x="293" y="-37.8" font-family="Helvetica,sans-Serif" font-size="14.00">30.7%</text>
<text text-anchor="middle" x="293" y="-22.8" font-family="Helvetica,sans-Serif" font-size="14.00">[0.0, 0.022, 0.978]</text>
<text text-anchor="middle" x="293" y="-7.8" font-family="Helvetica,sans-Serif" font-size="14.00">virginica</text>
</g>
<!-- 2&#45;&gt;4 -->
<g id="edge4" class="edge">
<title>2&#45;&gt;4</title>
<path fill="none" stroke="black" d="M244.44,-88.68C251.34,-79.99 258.78,-70.62 265.72,-61.87"/>
<polygon fill="black" stroke="black" points="268.97,-64.4 272.45,-54.39 263.49,-60.05 268.97,-64.4"/>
</g>
</g>
</svg>
